<svg width="255" height="255" viewBox="0 0 255 255" fill="none" xmlns="http://www.w3.org/2000/svg">
<rect width="255" height="255" rx="40" fill="url(#paint0_linear_5362_3920)"/>
<g clip-path="url(#clip0_5362_3920)">
<path d="M104.896 145.188C110.412 145.188 114.883 149.66 114.883 155.175V198.016C114.883 203.532 110.412 208.003 104.896 208.003C99.3815 208.003 94.9102 203.532 94.9102 198.016V155.175C94.9102 149.661 99.3815 145.189 104.896 145.189V145.188Z" fill="#A4C639"/>
<path d="M82.0977 93.6816C82.0648 94.0603 82.036 94.4432 82.036 94.8303V159.738C82.036 166.719 87.5614 172.343 94.4206 172.343H160.428C167.288 172.343 172.813 166.718 172.813 159.738V94.8303C172.813 94.4432 172.799 94.0589 172.767 93.6816H82.0977Z" fill="#A4C639"/>
<path d="M149.952 145.185C155.468 145.185 159.939 149.657 159.939 155.172V198.013C159.939 203.529 155.468 208 149.952 208C144.437 208 139.966 203.529 139.966 198.013V155.172C139.966 149.658 144.437 145.186 149.952 145.186V145.185ZM65.9897 99.4552C71.5046 99.4552 75.9759 103.927 75.9759 109.442V152.283C75.9759 157.799 71.5046 162.27 65.9897 162.27C60.4742 162.27 56.0028 157.799 56.0028 152.284V109.443C56.0021 103.927 60.4735 99.4552 65.9897 99.4552ZM188.86 99.4552C194.375 99.4552 198.846 103.927 198.846 109.442V152.283C198.846 157.799 194.375 162.27 188.86 162.27C183.344 162.27 178.873 157.799 178.873 152.284V109.443C178.873 103.927 183.344 99.4552 188.86 99.4552ZM82.3891 89.415C82.6668 69.4777 100.068 53.1309 122.405 50.9766H132.442C154.781 53.1316 172.181 69.4791 172.458 89.415H82.3891Z" fill="#A4C639"/>
<path d="M85.8625 49.0508L96.3971 67.298M168.987 49.0508L158.452 67.298" stroke="#A4C639" stroke-width="1.52927" stroke-linecap="round" stroke-linejoin="round"/>
<path d="M114.008 71.5487C114.017 74.3356 111.71 76.6014 108.856 76.6091C106.003 76.6162 103.683 74.3636 103.675 71.5768V71.5487C103.667 68.7611 105.974 66.496 108.827 66.4883C111.68 66.4806 114 68.7324 114.008 71.5207V71.5487ZM152.576 71.5487C152.584 74.3356 150.278 76.6014 147.424 76.6091C144.571 76.6162 142.251 74.3636 142.243 71.5768V71.5487C142.235 68.7611 144.541 66.496 147.395 66.4883C150.248 66.4806 152.567 68.7324 152.576 71.5207V71.5487Z" fill="white"/>
</g>
<defs>
<linearGradient id="paint0_linear_5362_3920" x1="220" y1="242.5" x2="28" y2="13.5" gradientUnits="userSpaceOnUse">
<stop stop-color="#E6FF96"/>
<stop offset="1" stop-color="#F3FFCD"/>
</linearGradient>
<clipPath id="clip0_5362_3920">
<rect width="142.848" height="160" fill="white" transform="translate(56 48)"/>
</clipPath>
</defs>
</svg>
