<svg width="255" height="255" viewBox="0 0 255 255" fill="none" xmlns="http://www.w3.org/2000/svg">
<rect width="255" height="255" rx="40" fill="url(#paint0_linear_5362_3915)"/>
<g clip-path="url(#clip0_5362_3915)">
<path d="M192.459 56.3439C190.209 61.7181 187.355 66.8216 183.918 71.5084C168.879 56.4689 148.465 48.0117 127.197 48.0117C83.2033 48.0117 47 84.2567 47 128.313C47 150.289 55.9987 171.328 71.9132 186.492L74.8711 189.117C89.3275 201.303 107.637 208.01 126.531 208.01C168.358 208.01 203.52 175.223 206.499 133.437C208.686 112.982 202.687 87.1104 192.459 56.3439ZM83.3075 186.951C82.016 188.555 80.0371 189.492 77.9749 189.492C74.2046 189.492 71.1216 186.388 71.1216 182.618C71.1216 178.848 74.2254 175.744 77.9749 175.744C79.5371 175.744 81.0786 176.285 82.2868 177.285C85.2239 179.66 85.6821 184.014 83.3075 186.951ZM192.126 162.912C172.337 189.304 130.072 180.41 102.971 181.681C102.971 181.681 98.1596 181.972 93.3269 182.764C93.3269 182.764 95.1391 181.993 97.493 181.097C116.511 174.473 125.51 173.182 137.071 167.245C158.839 156.163 180.356 131.917 184.835 106.691C176.544 130.958 151.423 151.81 128.53 160.288C112.845 166.079 84.5156 171.703 84.5156 171.703L83.3699 171.099C64.081 161.704 63.4977 119.898 98.5553 106.399C113.907 100.484 128.593 103.733 145.174 99.7753C162.88 95.5676 183.356 82.2778 191.688 64.9469C201.02 92.6722 212.248 136.083 192.126 162.912Z" fill="#77BC1F"/>
</g>
<defs>
<linearGradient id="paint0_linear_5362_3915" x1="63.5" y1="233" x2="186" y2="20" gradientUnits="userSpaceOnUse">
<stop stop-color="#E0FFB9"/>
<stop offset="1" stop-color="#ECFFD3"/>
</linearGradient>
<clipPath id="clip0_5362_3915">
<rect width="159.936" height="160" fill="white" transform="translate(47 48)"/>
</clipPath>
</defs>
</svg>
