<svg width="255" height="255" viewBox="0 0 255 255" fill="none" xmlns="http://www.w3.org/2000/svg">
<rect width="255" height="255" rx="40" fill="white"/>
<g clip-path="url(#clip0_5363_3931)">
<path d="M92.0682 114.75C92.0682 116.719 92.281 118.315 92.6535 119.486C93.0792 120.657 93.6113 121.934 94.3562 123.317C94.6222 123.743 94.7287 124.169 94.7287 124.541C94.7287 125.073 94.4094 125.605 93.7177 126.137L90.3655 128.372C89.8866 128.691 89.4077 128.851 88.9821 128.851C88.45 128.851 87.9179 128.585 87.3858 128.106C86.6409 127.308 86.0023 126.456 85.4703 125.605C84.9382 124.701 84.4061 123.69 83.8208 122.466C79.6705 127.361 74.456 129.809 68.1773 129.809C63.7077 129.809 60.1427 128.532 57.5354 125.978C54.9282 123.424 53.598 120.018 53.598 115.761C53.598 111.239 55.1942 107.567 58.44 104.8C61.6858 102.033 65.9957 100.65 71.4762 100.65C73.2854 100.65 75.1477 100.81 77.1164 101.076C79.0852 101.342 81.1071 101.767 83.2355 102.246V98.362C83.2355 94.3182 82.3841 91.4981 80.7346 89.8486C79.0319 88.1991 76.1586 87.401 72.0615 87.401C70.1992 87.401 68.2837 87.6138 66.315 88.0927C64.3462 88.5716 62.4307 89.1569 60.5684 89.9018C59.717 90.2743 59.0785 90.4871 58.706 90.5935C58.3336 90.6999 58.0675 90.7531 57.8547 90.7531C57.1098 90.7531 56.7373 90.221 56.7373 89.1037V86.4964C56.7373 85.6451 56.8437 85.0065 57.1098 84.6341C57.3758 84.2616 57.8547 83.8892 58.5996 83.5167C60.4619 82.5589 62.6967 81.7608 65.304 81.1223C67.9112 80.4306 70.6781 80.1113 73.6046 80.1113C79.9365 80.1113 84.5657 81.5479 87.5454 84.4212C90.4719 87.2945 91.9618 91.6577 91.9618 97.5107V114.75H92.0682ZM70.4653 122.838C72.2212 122.838 74.0303 122.519 75.9458 121.881C77.8613 121.242 79.564 120.071 81.0007 118.475C81.852 117.464 82.4905 116.347 82.8098 115.07C83.1291 113.793 83.3419 112.25 83.3419 110.441V108.206C81.7988 107.833 80.1493 107.514 78.4466 107.301C76.744 107.088 75.0945 106.982 73.445 106.982C69.88 106.982 67.2727 107.674 65.5168 109.11C63.7609 110.547 62.9096 112.569 62.9096 115.229C62.9096 117.73 63.5481 119.593 64.8783 120.87C66.1553 122.2 68.0176 122.838 70.4653 122.838ZM113.192 128.585C112.234 128.585 111.596 128.425 111.17 128.053C110.745 127.734 110.372 126.989 110.053 125.978L97.5487 84.8469C97.2295 83.7827 97.0699 83.091 97.0699 82.7186C97.0699 81.8672 97.4955 81.3883 98.3469 81.3883H103.561C104.572 81.3883 105.264 81.5479 105.637 81.9204C106.062 82.2397 106.381 82.9846 106.701 83.9956L115.64 119.22L123.94 83.9956C124.207 82.9314 124.526 82.2397 124.951 81.9204C125.377 81.6012 126.122 81.3883 127.08 81.3883H131.337C132.348 81.3883 133.039 81.5479 133.465 81.9204C133.891 82.2397 134.263 82.9846 134.476 83.9956L142.883 119.646L152.088 83.9956C152.407 82.9314 152.78 82.2397 153.152 81.9204C153.578 81.6012 154.27 81.3883 155.227 81.3883H160.176C161.027 81.3883 161.506 81.814 161.506 82.7186C161.506 82.9846 161.453 83.2506 161.4 83.5699C161.347 83.8892 161.24 84.3148 161.027 84.9001L148.204 126.031C147.885 127.095 147.512 127.787 147.086 128.106C146.661 128.425 145.969 128.638 145.065 128.638H140.489C139.478 128.638 138.786 128.478 138.36 128.106C137.935 127.734 137.562 127.042 137.349 125.978L129.102 91.6577L120.908 125.924C120.642 126.989 120.322 127.68 119.897 128.053C119.471 128.425 118.726 128.585 117.768 128.585H113.192ZM181.566 130.022C178.799 130.022 176.032 129.702 173.372 129.064C170.711 128.425 168.636 127.734 167.253 126.935C166.401 126.456 165.816 125.924 165.603 125.446C165.39 124.967 165.284 124.435 165.284 123.956V121.242C165.284 120.125 165.71 119.593 166.508 119.593C166.827 119.593 167.146 119.646 167.466 119.752C167.785 119.859 168.264 120.071 168.796 120.284C170.605 121.082 172.574 121.721 174.649 122.147C176.777 122.572 178.852 122.785 180.981 122.785C184.333 122.785 186.94 122.2 188.749 121.029C190.558 119.859 191.516 118.156 191.516 115.974C191.516 114.484 191.037 113.261 190.079 112.25C189.122 111.239 187.313 110.334 184.705 109.483L176.99 107.088C173.106 105.865 170.232 104.055 168.477 101.661C166.721 99.3198 165.816 96.7126 165.816 93.9457C165.816 91.7109 166.295 89.7422 167.253 88.0395C168.211 86.3368 169.488 84.8469 171.084 83.6763C172.68 82.4525 174.489 81.5479 176.618 80.9094C178.746 80.2709 180.981 80.0049 183.322 80.0049C184.493 80.0049 185.716 80.0581 186.887 80.2177C188.111 80.3773 189.228 80.5902 190.346 80.803C191.41 81.0691 192.421 81.3351 193.378 81.6544C194.336 81.9736 195.081 82.2929 195.613 82.6121C196.358 83.0378 196.89 83.4635 197.21 83.9424C197.529 84.368 197.688 84.9533 197.688 85.6983V88.1991C197.688 89.3165 197.263 89.9018 196.465 89.9018C196.039 89.9018 195.347 89.689 194.443 89.2633C191.41 87.8798 188.004 87.1881 184.226 87.1881C181.194 87.1881 178.799 87.667 177.15 88.678C175.5 89.689 174.649 91.232 174.649 93.4136C174.649 94.9035 175.181 96.1805 176.245 97.1914C177.309 98.2024 179.278 99.2134 182.098 100.118L189.654 102.512C193.485 103.736 196.252 105.439 197.901 107.62C199.551 109.802 200.349 112.303 200.349 115.07C200.349 117.358 199.87 119.433 198.965 121.242C198.008 123.051 196.731 124.647 195.081 125.924C193.432 127.255 191.463 128.212 189.175 128.904C186.781 129.649 184.28 130.022 181.566 130.022Z" fill="#252F3E"/>
<path d="M191.623 155.881C174.117 168.811 148.683 175.675 126.814 175.675C96.1653 175.675 68.5497 164.341 47.6917 145.505C46.0422 144.015 47.5321 141.993 49.5008 143.164C72.0615 156.254 99.8899 164.182 128.676 164.182C148.097 164.182 169.434 160.138 189.069 151.837C191.995 150.507 194.496 153.753 191.623 155.881Z" fill="#FF9900"/>
<path d="M198.912 147.581C196.677 144.707 184.12 146.197 178.427 146.889C176.724 147.102 176.458 145.612 178.001 144.495C188.004 137.471 204.446 139.493 206.361 141.834C208.277 144.229 205.829 160.67 196.465 168.545C195.028 169.769 193.644 169.13 194.283 167.534C196.411 162.266 201.147 150.401 198.912 147.581Z" fill="#FF9900"/>
</g>
<defs>
<clipPath id="clip0_5363_3931">
<rect width="160" height="95.68" fill="white" transform="translate(47 80)"/>
</clipPath>
</defs>
</svg>
