<svg width="255" height="255" viewBox="0 0 255 255" fill="none" xmlns="http://www.w3.org/2000/svg">
<rect width="255" height="255" rx="40" fill="url(#paint0_linear_5362_3897)"/>
<g clip-path="url(#clip0_5362_3897)">
<path d="M197.416 128.019C197.416 118.717 185.767 109.902 167.908 104.435C172.029 86.2319 170.197 71.7495 162.126 67.1129C160.266 66.0252 158.09 65.5101 155.715 65.5101V71.8926C157.031 71.8926 158.09 72.1502 158.978 72.6368C162.87 74.8692 164.559 83.3697 163.242 94.3031C162.927 96.9935 162.412 99.827 161.783 102.718C156.173 101.344 150.048 100.285 143.608 99.598C139.744 94.3031 135.737 89.4947 131.702 85.2874C141.032 76.6151 149.79 71.864 155.743 71.864V65.4814C147.873 65.4814 137.569 71.0912 127.151 80.8225C116.733 71.1485 106.429 65.5959 98.5581 65.5959V71.9785C104.483 71.9785 113.269 76.701 122.6 85.316C118.593 89.5233 114.586 94.3031 110.779 99.598C104.311 100.285 98.186 101.344 92.5763 102.746C91.918 99.8842 91.4314 97.108 91.088 94.4462C89.7428 83.5129 91.4028 75.0123 95.2667 72.7513C96.1253 72.2361 97.2415 72.0071 98.5581 72.0071V65.6246C96.1539 65.6246 93.9787 66.1397 92.0897 67.2273C84.0471 71.864 82.244 86.3177 86.3941 104.464C68.5916 109.959 57 118.746 57 128.019C57 137.321 68.6489 146.136 86.5086 151.603C82.3871 169.806 84.2189 184.288 92.2901 188.925C94.1504 190.013 96.3257 190.528 98.7299 190.528C106.601 190.528 116.904 184.918 127.323 175.187C137.741 184.861 148.044 190.413 155.915 190.413C158.319 190.413 160.495 189.898 162.384 188.811C170.426 184.174 172.229 169.72 168.079 151.574C185.824 146.108 197.416 137.292 197.416 128.019ZM160.151 108.929C159.092 112.621 157.776 116.427 156.287 120.234C155.114 117.944 153.883 115.655 152.538 113.365C151.221 111.075 149.819 108.843 148.416 106.667C152.481 107.269 156.402 108.013 160.151 108.929ZM147.043 139.41C144.81 143.274 142.52 146.938 140.145 150.344C135.88 150.716 131.558 150.916 127.208 150.916C122.886 150.916 118.564 150.716 114.328 150.372C111.953 146.966 109.635 143.331 107.402 139.496C105.227 135.747 103.252 131.94 101.449 128.105C103.223 124.27 105.227 120.434 107.373 116.685C109.606 112.821 111.896 109.158 114.271 105.752C118.536 105.38 122.858 105.179 127.208 105.179C131.53 105.179 135.852 105.38 140.088 105.723C142.463 109.129 144.782 112.764 147.014 116.599C149.189 120.348 151.164 124.155 152.967 127.99C151.164 131.826 149.189 135.661 147.043 139.41ZM156.287 135.689C157.833 139.525 159.149 143.36 160.237 147.081C156.488 147.997 152.538 148.769 148.445 149.37C149.847 147.167 151.25 144.906 152.567 142.587C153.883 140.297 155.114 137.979 156.287 135.689ZM127.265 166.228C124.604 163.481 121.942 160.418 119.309 157.07C121.884 157.184 124.518 157.27 127.179 157.27C129.87 157.27 132.532 157.213 135.136 157.07C132.56 160.418 129.898 163.481 127.265 166.228ZM105.971 149.37C101.907 148.769 97.9857 148.025 94.2363 147.109C95.2953 143.417 96.6119 139.611 98.1002 135.804C99.2737 138.094 100.504 140.383 101.85 142.673C103.195 144.963 104.569 147.195 105.971 149.37ZM127.122 89.8095C129.784 92.5572 132.446 95.6197 135.079 98.9683C132.503 98.8539 129.87 98.768 127.208 98.768C124.518 98.768 121.856 98.8252 119.251 98.9683C121.827 95.6197 124.489 92.5572 127.122 89.8095ZM105.942 106.667C104.54 108.871 103.138 111.132 101.821 113.451C100.504 115.74 99.2737 118.03 98.1002 120.32C96.5546 116.485 95.2381 112.649 94.1504 108.929C97.8998 108.041 101.85 107.269 105.942 106.667ZM80.0401 142.501C69.9082 138.18 63.3539 132.512 63.3539 128.019C63.3539 123.525 69.9082 117.83 80.0401 113.537C82.5016 112.478 85.192 111.533 87.9682 110.646C89.5997 116.256 91.7463 122.094 94.408 128.076C91.7749 134.029 89.6569 139.84 88.0541 145.421C85.2206 144.533 82.5302 143.56 80.0401 142.501ZM95.4384 183.401C91.5459 181.169 89.8573 172.668 91.1738 161.735C91.4887 159.044 92.0039 156.211 92.6335 153.32C98.2433 154.694 104.368 155.753 110.808 156.44C114.672 161.735 118.679 166.543 122.714 170.751C113.384 179.423 104.626 184.174 98.6726 184.174C97.3846 184.145 96.297 183.888 95.4384 183.401ZM163.328 161.592C164.673 172.525 163.013 181.026 159.149 183.287C158.291 183.802 157.175 184.031 155.858 184.031C149.933 184.031 141.147 179.308 131.816 170.693C135.823 166.486 139.83 161.706 143.637 156.411C150.105 155.724 156.23 154.665 161.84 153.263C162.498 156.154 163.013 158.93 163.328 161.592ZM174.347 142.501C171.886 143.56 169.195 144.505 166.419 145.392C164.788 139.782 162.641 133.944 159.979 127.962C162.613 122.008 164.731 116.198 166.333 110.617C169.167 111.504 171.857 112.478 174.376 113.537C184.508 117.858 191.062 123.525 191.062 128.019C191.034 132.512 184.479 138.208 174.347 142.501Z" fill="#61DAFB"/>
<path d="M127.18 141.099C134.403 141.099 140.259 135.243 140.259 128.019C140.259 120.796 134.403 114.939 127.18 114.939C119.956 114.939 114.1 120.796 114.1 128.019C114.1 135.243 119.956 141.099 127.18 141.099Z" fill="#61DAFB"/>
</g>
<defs>
<linearGradient id="paint0_linear_5362_3897" x1="33" y1="5.80514e-06" x2="199.5" y2="255" gradientUnits="userSpaceOnUse">
<stop stop-color="#1E2D31"/>
<stop offset="1" stop-color="#2F1B2D"/>
</linearGradient>
<clipPath id="clip0_5362_3897">
<rect width="140.416" height="160" fill="white" transform="translate(57 48)"/>
</clipPath>
</defs>
</svg>
