<svg width="255" height="255" viewBox="0 0 255 255" fill="none" xmlns="http://www.w3.org/2000/svg">
<rect width="255" height="255" rx="40" fill="url(#paint0_linear_5362_3923)"/>
<g clip-path="url(#clip0_5362_3923)">
<path d="M82.5626 48H171.188C175.5 48 179.688 48.6875 183.75 50.125C189.625 52.25 194.938 56 198.938 60.875C203 65.75 205.688 71.75 206.625 78C207 80.3125 207.063 82.625 207.063 84.9375V171.375C207.063 174.125 206.938 176.938 206.375 179.625C205.125 185.813 202.188 191.625 197.938 196.313C193.75 201 188.25 204.5 182.313 206.375C178.688 207.5 174.938 208 171.125 208C169.438 208 82.3126 208 81.0001 207.937C74.6251 207.625 68.3126 205.562 63.0001 202C57.8126 198.5 53.5626 193.625 50.8126 188C48.4376 183.188 47.2501 177.813 47.2501 172.438V83.5625C47.1251 78.25 48.2501 73 50.5626 68.25C53.2501 62.625 57.4376 57.6875 62.6251 54.1875C67.9376 50.5625 74.1876 48.4375 80.5626 48.125C81.1876 48 81.8751 48 82.5626 48Z" fill="url(#paint1_linear_5362_3923)"/>
<path d="M182 178.875C181.438 178 180.813 177.125 180.125 176.313C178.563 174.438 176.75 172.813 174.75 171.438C172.25 169.75 169.313 168.688 166.313 168.563C164.188 168.438 162.063 168.813 160.063 169.563C158.063 170.25 156.125 171.25 154.25 172.25C152.063 173.375 149.875 174.5 147.563 175.438C144.813 176.563 141.938 177.438 139 178.063C135.313 178.75 131.563 179 127.875 178.938C121.188 178.813 114.5 177.813 108.125 175.938C102.5 174.25 97.125 171.938 92.0625 169C87.625 166.438 83.5 163.5 79.625 160.188C76.4375 157.438 73.5 154.5 70.75 151.375C68.875 149.188 67.0625 146.875 65.375 144.5C64.6875 143.563 64.0625 142.563 63.5 141.563L47 123.75V83.4375C47 63.875 62.8125 48 82.375 48H113.938L137.313 71.75C190.063 107.625 173 147.188 173 147.188C173 147.188 188 164.063 182 178.875Z" fill="url(#paint2_linear_5362_3923)"/>
<path d="M137.438 71.751C190.188 107.626 173.125 147.188 173.125 147.188C173.125 147.188 188.125 164.126 182.063 178.938C182.063 178.938 175.875 168.563 165.5 168.563C155.5 168.563 149.625 178.938 129.5 178.938C84.6875 178.938 63.5 141.501 63.5 141.501C103.875 168.063 131.438 149.251 131.438 149.251C113.25 138.688 74.5625 88.1885 74.5625 88.1885C108.25 116.876 122.813 124.438 122.813 124.438C114.125 117.251 89.75 82.126 89.75 82.126C109.25 101.876 148 129.438 148 129.438C159 98.9385 137.438 71.751 137.438 71.751Z" fill="white"/>
</g>
<defs>
<linearGradient id="paint0_linear_5362_3923" x1="217" y1="21.5" x2="127.5" y2="255" gradientUnits="userSpaceOnUse">
<stop stop-color="#FFBC7E"/>
<stop offset="1" stop-color="#FFBFB8"/>
</linearGradient>
<linearGradient id="paint1_linear_5362_3923" x1="142.182" y1="42.2906" x2="111.953" y2="213.729" gradientUnits="userSpaceOnUse">
<stop stop-color="#FAAE42"/>
<stop offset="1" stop-color="#EF3E31"/>
</linearGradient>
<linearGradient id="paint2_linear_5362_3923" x1="128.633" y1="50.585" x2="106.508" y2="176.058" gradientUnits="userSpaceOnUse">
<stop stop-color="#E39F3A"/>
<stop offset="1" stop-color="#D33929"/>
</linearGradient>
<clipPath id="clip0_5362_3923">
<rect width="160" height="160" fill="white" transform="translate(47 48)"/>
</clipPath>
</defs>
</svg>
